D:\school\WTK\thesis\model\3dpredictsim\Results\debug_batch\Pog_s1_tmt_aCst_d05_k500_ig24_pas_GRF.mot
nRows=25
nColumns=19

name D:\school\WTK\thesis\model\3dpredictsim\Results\debug_batch\Pog_s1_tmt_aCst_d05_k500_ig24_pas_GRF.mot
datacolumns 19
datarows 25
range 0.0000000000 0.2696690618
endheader
time 	ground_force_vx	ground_force_vy	ground_force_vz	ground_force_px	ground_force_py	ground_force_pz	1_ground_force_vx	1_ground_force_vy	1_ground_force_vz	1_ground_force_px	1_ground_force_py	1_ground_force_pz	ground_torque_x	ground_torque_y	ground_torque_z	1_ground_torque_x	1_ground_torque_y	1_ground_torque_z
        0.0000000000	      -86.5566842569	       82.8381248940	       40.8459547933	        0.1752889157	        0.0000000000	        0.0372499862	       96.1173791809	      482.2879100650	       -5.0274649692	       -0.3222445721	        0.0000000000	       -0.0340065008	        0.0000000000	        0.0000000000	        0.0000000000	        0.0000000000	        0.0000000000	        0.0000000000	
        0.0112362109	      -81.2995610856	      182.5171037524	       77.3271561783	        0.1811132005	        0.0000000000	        0.0353893287	       77.0198968666	      400.4696940938	      -10.1713807261	       -0.3181049937	        0.0000000000	       -0.0327418708	        0.0000000000	        0.0000000000	        0.0000000000	        0.0000000000	        0.0000000000	        0.0000000000	
        0.0224724218	      -41.2585398537	      337.8902841041	       16.8209472337	        0.1847683548	        0.0000000000	        0.0334330715	       53.7136237986	      305.9262333180	       -7.7868146826	       -0.3113760018	        0.0000000000	       -0.0300631892	        0.0000000000	        0.0000000000	        0.0000000000	        0.0000000000	        0.0000000000	        0.0000000000	
        0.0337086327	      -46.5192821504	      496.9949328178	       -1.2427056564	        0.1890424929	        0.0000000000	        0.0340378129	       27.0346156953	      206.1793792824	       -6.5605730095	       -0.2993816725	        0.0000000000	       -0.0246434183	        0.0000000000	        0.0000000000	        0.0000000000	        0.0000000000	        0.0000000000	        0.0000000000	
        0.0449448436	      -83.6637269849	      674.3422062784	       -8.6895924231	        0.1973196428	        0.0000000000	        0.0365401682	        7.1953006373	      143.4260545241	      -10.4513419617	       -0.2866366094	        0.0000000000	       -0.0181085221	        0.0000000000	        0.0000000000	        0.0000000000	        0.0000000000	        0.0000000000	        0.0000000000	
        0.0561810545	     -107.7267525887	      793.2863840454	      -11.9925928548	        0.2033679659	        0.0000000000	        0.0382734304	        1.3874456437	      112.2677422283	      -11.1847277296	       -0.2866932356	        0.0000000000	       -0.0183908937	        0.0000000000	        0.0000000000	        0.0000000000	        0.0000000000	        0.0000000000	        0.0000000000	
        0.0674172655	     -113.0235906906	      837.6903074755	      -13.0201836468	        0.2075309115	        0.0000000000	        0.0393270063	       -1.7823873774	       73.4121258052	      -10.3354808414	       -0.2861415143	        0.0000000000	       -0.0184606664	        0.0000000000	        0.0000000000	        0.0000000000	        0.0000000000	        0.0000000000	        0.0000000000	
        0.0786534764	     -108.3484219918	      835.4181004731	      -13.0026895958	        0.2107633007	        0.0000000000	        0.0399561735	       -7.8202053677	       30.2620568623	       -5.8221957681	       -0.2864435480	        0.0000000000	       -0.0183629527	        0.0000000000	        0.0000000000	        0.0000000000	        0.0000000000	        0.0000000000	        0.0000000000	
        0.0898896873	      -99.1371140534	      817.2024249163	      -13.4250435340	        0.2139951010	        0.0000000000	        0.0402871870	        0.0859040618	       -0.0843653474	        0.0008291812	        0.0000000000	        0.0000000000	        0.0000000000	        0.0000000000	        0.0000000000	        0.0000000000	        0.0000000000	        0.0000000000	        0.0000000000	
        0.1011258982	      -87.0517586503	      788.5265058800	      -14.1635046703	        0.2174038979	        0.0000000000	        0.0404297261	        0.0001524840	       -0.0001225010	       -0.0000095993	        0.0000000000	        0.0000000000	        0.0000000000	        0.0000000000	        0.0000000000	        0.0000000000	        0.0000000000	        0.0000000000	        0.0000000000	
        0.1123621091	      -75.4594631530	      754.4645320461	      -14.5680908213	        0.2212540675	        0.0000000000	        0.0404834178	        0.0001039756	       -0.0000727249	       -0.0000081569	        0.0000000000	        0.0000000000	        0.0000000000	        0.0000000000	        0.0000000000	        0.0000000000	        0.0000000000	        0.0000000000	        0.0000000000	
        0.1235983200	      -66.0769120735	      723.8562468237	      -14.7638628841	        0.2258014775	        0.0000000000	        0.0404008932	        0.0012703136	       -0.0007966454	       -0.0001091537	        0.0000000000	        0.0000000000	        0.0000000000	        0.0000000000	        0.0000000000	        0.0000000000	        0.0000000000	        0.0000000000	        0.0000000000	
        0.1348345309	      -56.8490080637	      694.3462929663	      -15.3305373175	        0.2305348339	        0.0000000000	        0.0402969227	       -0.0000813471	        0.0000467895	        0.0000073465	        0.0000000000	        0.0000000000	        0.0000000000	        0.0000000000	        0.0000000000	        0.0000000000	        0.0000000000	        0.0000000000	        0.0000000000	
        0.1460707418	      -48.1915989964	      666.4370753567	      -15.9764025350	        0.2352681384	        0.0000000000	        0.0402399713	       -0.0368018095	        0.0197212451	        0.0034338770	        0.0000000000	        0.0000000000	        0.0000000000	        0.0000000000	        0.0000000000	        0.0000000000	        0.0000000000	        0.0000000000	        0.0000000000	
        0.1573069527	      -40.4925156920	      642.0103547575	      -16.5072150152	        0.2399524592	        0.0000000000	        0.0402290972	       -0.0239695722	        0.0120939214	        0.0022972598	        0.0000000000	        0.0000000000	        0.0000000000	        0.0000000000	        0.0000000000	        0.0000000000	        0.0000000000	        0.0000000000	        0.0000000000	
        0.1685431636	      -33.9413458601	      621.5593106222	      -17.0914902303	        0.2446412464	        0.0000000000	        0.0402458149	       -0.0167239722	        0.0080141992	        0.0016368503	        0.0000000000	        0.0000000000	        0.0000000000	        0.0000000000	        0.0000000000	        0.0000000000	        0.0000000000	        0.0000000000	        0.0000000000	
        0.1797793746	      -28.3258232306	      605.4119124076	      -17.5348329001	        0.2495638281	        0.0000000000	        0.0402705202	       -0.0151755988	        0.0069582863	        0.0015049262	        0.0000000000	        0.0000000000	        0.0000000000	        0.0000000000	        0.0000000000	        0.0000000000	        0.0000000000	        0.0000000000	        0.0000000000	
        0.1910155855	      -24.1562495192	      593.8681454805	      -17.6937319517	        0.2547817427	        0.0000000000	        0.0402750307	       -0.0184120727	        0.0081229913	        0.0018416496	        0.0000000000	        0.0000000000	        0.0000000000	        0.0000000000	        0.0000000000	        0.0000000000	        0.0000000000	        0.0000000000	        0.0000000000	
        0.2022517964	      -20.8155058361	      586.3233799162	      -17.6376103019	        0.2603122342	        0.0000000000	        0.0402391481	       -0.0286872229	        0.0122346172	        0.0028707603	        0.0000000000	        0.0000000000	        0.0000000000	        0.0000000000	        0.0000000000	        0.0000000000	        0.0000000000	        0.0000000000	        0.0000000000	
        0.2134880073	      -19.1220378570	      582.1035384424	      -17.6192857971	        0.2660637392	        0.0000000000	        0.0401510886	       -0.0534227919	        0.0221192878	        0.0053150762	        0.0000000000	        0.0000000000	        0.0000000000	        0.0000000000	        0.0000000000	        0.0000000000	        0.0000000000	        0.0000000000	        0.0000000000	
        0.2247242182	      -18.1079983254	      580.3528505252	      -17.3697792851	        0.2718525387	        0.0000000000	        0.0400239473	       -0.1093337131	        0.0441255135	        0.0107730100	        0.0000000000	        0.0000000000	        0.0000000000	        0.0000000000	        0.0000000000	        0.0000000000	        0.0000000000	        0.0000000000	        0.0000000000	
        0.2359604291	      -16.8320327837	      579.7035814954	      -17.1837607810	        0.2776915278	        0.0000000000	        0.0398624183	       -0.2267307678	        0.0895271430	        0.0220468838	        0.0000000000	        0.0000000000	        0.0000000000	        0.0000000000	        0.0000000000	        0.0000000000	        0.0000000000	        0.0000000000	        0.0000000000	
        0.2471966400	      -15.4851736049	      579.0771948761	      -16.9919206035	        0.2835163279	        0.0000000000	        0.0396775143	       -0.4440677777	        0.1721824090	        0.0425149684	        0.0000000000	        0.0000000000	        0.0000000000	        0.0000000000	        0.0000000000	        0.0000000000	        0.0000000000	        0.0000000000	        0.0000000000	
        0.2584328509	      -13.8783385896	      577.7646767874	      -16.7296453486	        0.2892489281	        0.0000000000	        0.0394830415	       -0.7781015901	        0.2973271943	        0.0731569818	        0.0000000000	        0.0000000000	        0.0000000000	        0.0000000000	        0.0000000000	        0.0000000000	        0.0000000000	        0.0000000000	        0.0000000000	
        0.2696690618	      -11.8539355256	      575.1811434959	      -16.3648470916	        0.2948765191	        0.0000000000	        0.0392863307	       -1.1851768362	        0.4477680141	        0.1090467931	        0.0000000000	        0.0000000000	        0.0000000000	        0.0000000000	        0.0000000000	        0.0000000000	        0.0000000000	        0.0000000000	        0.0000000000	
